<svg width="797" height="122" viewBox="0 0 797 122" fill="none" xmlns="http://www.w3.org/2000/svg">
<path d="M95.2097 102.763C66.8919 123.746 34.8043 128.263 23.5306 112.845C20.0936 108.135 18.9899 102.108 19.9256 95.4075C20.0941 96.9918 20.6687 98.5047 21.5931 99.7979C28.4461 109.159 53.3149 102.452 77.1429 84.7938C100.908 67.1808 114.659 45.3404 107.935 35.9225L107.881 35.847C104.423 31.1184 96.3763 30.4873 86.1883 33.2924C87.0001 32.1611 87.7538 31.0378 88.4496 29.9226C94.118 20.8791 95.8215 12.7112 92.1986 7.7652C88.1047 2.173 78.1177 1.90124 65.9802 6.02896C66.5857 8.01611 66.4518 10.1572 65.6036 12.0523C64.7555 13.9473 63.251 15.4666 61.3713 16.3262C59.4917 17.1859 57.3655 17.3271 55.3899 16.7235C53.4144 16.1199 51.7248 14.8128 50.6367 13.0464C46.4649 15.414 42.4406 18.0358 38.5862 20.8972C15.9398 37.701 3.22647 59.025 10.1964 68.5487C13.4955 73.084 20.6934 74.1227 29.7477 72.157C29.4028 72.6673 29.0669 73.1716 28.74 73.6819C24.0704 80.9288 21.0713 88.1606 20.0246 94.7704L19.8626 94.7462C13.0126 93.7196 7.45224 90.848 3.92826 86.0258C-7.34545 70.611 6.47452 41.104 34.7893 20.1212C39.4979 16.6247 44.4649 13.4954 49.6469 10.7606C49.1186 8.76432 49.3255 6.64302 50.2293 4.78829C51.133 2.93356 52.6727 1.47062 54.5641 0.669537C56.4555 -0.131546 58.5709 -0.21669 60.5198 0.429825C62.4687 1.07634 64.1195 2.41086 65.1674 4.18704C83.2012 -1.5652 99.1775 0.077433 106.468 10.0389C110.022 14.9004 111.081 21.1599 109.98 28.1109C116.899 29.1194 122.523 31.9971 126.077 36.8676C137.341 52.2733 123.521 81.7803 95.2097 102.763Z" fill="#5352EB"/>
<path d="M166 70.0381C166 68.1165 166.57 66.7485 167.71 65.9343C168.85 65.0875 169.957 64.6641 171.032 64.6641H176.846C179.777 64.6641 182.008 66.26 183.539 69.4518C185.07 72.6437 188.506 74.2396 193.847 74.2396L210.946 74.5816C216.678 74.5816 219.545 72.7088 219.545 68.9633C219.545 66.1297 216.043 63.8987 209.041 62.2702C205.914 61.5211 202.462 60.7883 198.684 60.0718C194.906 59.3227 191.144 58.3944 187.398 57.2871C183.685 56.1797 180.266 54.8769 177.139 53.3787C174.012 51.8805 171.472 49.8286 169.518 47.223C167.596 44.5849 166.635 41.4907 166.635 37.9407C166.635 31.3941 168.964 26.3621 173.621 22.8446C178.279 19.2945 186.291 17.5195 197.658 17.5195L210.067 17.8126C216.744 17.8126 222.753 19.5388 228.094 22.9912C233.468 26.411 236.155 30.6939 236.155 35.8399C236.155 37.7615 235.585 39.1457 234.445 39.9925C233.305 40.8394 232.214 41.2628 231.172 41.2628H225.358C222.427 41.2628 220.196 39.6668 218.665 36.475C217.134 33.2506 213.698 31.6384 208.357 31.6384L193.652 31.3453C187.919 31.3453 185.053 33.218 185.053 36.9636C185.053 39.0155 186.861 40.6928 190.476 41.9956C194.124 43.2984 198.521 44.4546 203.667 45.4643C208.845 46.4413 214.04 47.6301 219.251 49.0306C224.463 50.4311 228.876 52.7436 232.491 55.968C236.139 59.1598 237.963 63.1496 237.963 67.9373C237.963 74.4838 235.618 79.5322 230.928 83.0823C226.27 86.5998 218.274 88.3585 206.94 88.3585L192.137 88.0654C185.46 88.0654 179.435 86.3555 174.061 82.9357C168.687 79.4833 166 75.1841 166 70.0381Z" fill="black"/>
<path d="M242.999 101.452V37.4521C242.999 36.5727 243.276 35.8562 243.829 35.3025C244.415 34.7163 245.132 34.4231 245.979 34.4231H255.408C256.255 34.4231 256.955 34.7163 257.508 35.3025C258.095 35.8562 258.388 36.5727 258.388 37.4521V38.9177C263.534 35.2699 269.51 33.446 276.317 33.446C283.125 33.446 288.808 35.8562 293.368 40.6765C297.927 45.4643 300.207 52.3365 300.207 61.2931C300.207 70.2172 297.846 77.0569 293.123 81.812C288.401 86.5672 282.033 88.9448 274.021 88.9448C269.885 88.9448 265.179 88.1143 259.902 86.4532V101.452C259.902 102.331 259.609 103.047 259.023 103.601C258.469 104.187 257.769 104.481 256.922 104.481H245.979C245.132 104.481 244.415 104.187 243.829 103.601C243.276 103.047 242.999 102.331 242.999 101.452ZM259.902 75.1678C264.104 76.5032 267.638 77.1708 270.504 77.1708C274.966 77.1708 278.125 75.9006 279.982 73.3602C281.871 70.8198 282.815 66.7648 282.815 61.1954C282.815 55.626 281.919 51.5874 280.128 49.0795C278.369 46.5391 275.715 45.2688 272.165 45.2688C268.647 45.2688 264.56 46.7345 259.902 49.6657V75.1678Z" fill="black"/>
<path d="M308.663 84.4502C304.364 81.4538 302.214 77.2197 302.214 71.748C302.214 66.2763 304.364 62.0748 308.663 59.1435C312.995 56.2123 318.564 54.7466 325.371 54.7466H341.542C341.542 50.936 340.744 48.2815 339.148 46.7833C337.552 45.2851 334.751 44.536 330.745 44.536C326.772 44.536 323.971 45.5294 322.342 47.5161C320.746 49.4703 318.776 50.4474 316.431 50.4474H309.152C308.272 50.4474 307.539 50.1706 306.953 49.6169C306.399 49.0306 306.123 48.3141 306.123 47.4673C306.123 38.1198 314.998 33.446 332.748 33.446C340.5 33.446 346.721 35.1885 351.411 38.6735C356.101 42.1259 358.446 47.4836 358.446 54.7466V84.9876C358.446 85.867 358.169 86.5835 357.615 87.1372C357.062 87.6909 356.345 87.9677 355.466 87.9677H346.037C345.157 87.9677 344.441 87.6909 343.887 87.1372C343.334 86.5509 343.057 85.8344 343.057 84.9876V83.4731C337.911 87.1535 331.967 88.9774 325.225 88.9448C318.515 88.9448 312.995 87.4466 308.663 84.4502ZM326.544 65.8366C324.264 65.8366 322.456 66.3903 321.121 67.4977C319.818 68.605 319.167 70.0381 319.167 71.7968C319.167 73.5556 319.851 75.005 321.219 76.1449C322.587 77.2848 324.525 77.8548 327.032 77.8548C332.048 77.8548 336.885 76.3892 341.542 73.4579V65.8366H326.544Z" fill="black"/>
<path d="M392.404 88.9448C383.284 88.9448 376.184 86.5998 371.103 81.9097C366.022 77.2197 363.482 70.3312 363.482 61.2443C363.482 52.1248 366.006 45.22 371.054 40.5299C376.103 35.8073 383.121 33.446 392.111 33.446C401.132 33.446 408.053 34.8791 412.874 37.7452C417.727 40.6114 420.153 44.8454 420.153 50.4474C420.153 51.3268 419.86 52.0433 419.274 52.597C418.72 53.1507 418.003 53.4275 417.124 53.4275H409.845C407.63 53.4275 405.757 52.2387 404.226 49.8612C402.305 46.7996 398.901 45.2688 394.016 45.2688C389.163 45.2688 385.759 46.5228 383.805 49.0306C381.884 51.5059 380.923 55.5609 380.923 61.1954C380.923 66.83 381.916 70.9012 383.903 73.409C385.922 75.9169 389.407 77.1708 394.358 77.1708C399.341 77.1708 402.793 75.6401 404.715 72.5785C406.246 70.1684 408.119 68.9633 410.333 68.9633H417.613C418.492 68.9633 419.209 69.2564 419.762 69.8427C420.348 70.3964 420.642 71.0966 420.642 71.9434C420.642 77.5454 418.215 81.7795 413.362 84.6456C408.542 87.5117 401.556 88.9448 392.404 88.9448Z" fill="black"/>
<path d="M429.146 81.812C424.13 77.0569 421.623 70.2172 421.623 61.2931C421.623 52.3365 424.147 45.4643 429.195 40.6765C434.243 35.8562 441.246 33.446 450.202 33.446C459.159 33.446 466.145 35.7911 471.161 40.4811C476.177 45.1386 478.685 51.8316 478.685 60.5603V63.345C478.685 64.2244 478.392 64.9572 477.805 65.5435C477.252 66.0972 476.535 66.374 475.656 66.374H438.868C439.194 70.3801 440.334 73.2951 442.288 75.119C444.275 76.9429 447.434 77.8548 451.766 77.8548C456.098 77.8548 459.061 76.8777 460.657 74.9235C462.253 72.9694 464.224 71.976 466.569 71.9434H473.848C474.727 71.9434 475.444 72.2365 475.998 72.8228C476.584 73.3765 476.877 74.093 476.877 74.9724C476.877 84.3199 467.969 88.9774 450.154 88.9448C441.164 88.9448 434.162 86.5672 429.146 81.812ZM438.771 56.0657H461.488C461.162 48.3792 457.384 44.536 450.154 44.536C442.956 44.536 439.161 48.3792 438.771 56.0657Z" fill="black"/>
<path d="M483.672 84.9876V37.4521C483.672 36.5727 483.949 35.8562 484.502 35.3025C485.089 34.7163 485.805 34.4231 486.652 34.4231H497.595C498.475 34.4231 499.191 34.7163 499.745 35.3025C500.299 35.8562 500.575 36.5727 500.575 37.4521V40.5299C502.92 38.2501 505.217 36.5076 507.464 35.3025C509.744 34.0649 512.48 33.446 515.672 33.446C523.26 33.446 529.009 36.5727 532.917 42.8261C538.975 36.5402 545.18 33.4135 551.531 33.446C557.914 33.446 562.946 35.3676 566.627 39.2109C570.34 43.0215 572.196 48.9329 572.196 56.9451V84.9876C572.196 85.867 571.919 86.5835 571.366 87.1372C570.812 87.6909 570.095 87.9677 569.216 87.9677H558.322C557.442 87.9677 556.709 87.6909 556.123 87.1372C555.569 86.5509 555.293 85.8344 555.293 84.9876V56.9451C555.293 49.1283 552.459 45.2363 546.792 45.2688C543.339 45.2688 539.773 47.7604 536.093 52.7436C536.288 54.1441 536.386 55.5446 536.386 56.9451V84.9876C536.386 85.867 536.093 86.5835 535.506 87.1372C534.953 87.6909 534.253 87.9677 533.406 87.9677H522.511C521.632 87.9677 520.899 87.6909 520.313 87.1372C519.759 86.5509 519.482 85.8344 519.482 84.9876V56.9451C519.482 49.1283 516.649 45.2363 510.981 45.2688C507.366 45.2688 503.898 47.5976 500.575 52.255V84.9876C500.575 85.867 500.282 86.5835 499.696 87.1372C499.142 87.6909 498.442 87.9677 497.595 87.9677H486.652C485.773 87.9677 485.056 87.6909 484.502 87.1372C483.949 86.5835 483.672 85.867 483.672 84.9876Z" fill="black"/>
<path d="M583.632 84.4502C579.333 81.4538 577.183 77.2197 577.183 71.748C577.183 66.2763 579.333 62.0748 583.632 59.1435C587.964 56.2123 593.533 54.7466 600.34 54.7466H616.511C616.511 50.936 615.713 48.2815 614.117 46.7833C612.521 45.2851 609.72 44.536 605.714 44.536C601.741 44.536 598.94 45.5294 597.311 47.5161C595.715 49.4703 593.745 50.4474 591.4 50.4474H584.121C583.241 50.4474 582.508 50.1706 581.922 49.6169C581.368 49.0306 581.092 48.3141 581.092 47.4673C581.092 38.1198 589.967 33.446 607.717 33.446C615.469 33.446 621.69 35.1885 626.38 38.6735C631.07 42.1259 633.415 47.4836 633.415 54.7466V84.9876C633.415 85.867 633.138 86.5835 632.584 87.1372C632.031 87.6909 631.314 87.9677 630.435 87.9677H621.006C620.126 87.9677 619.41 87.6909 618.856 87.1372C618.302 86.5509 618.026 85.8344 618.026 84.9876V83.4731C612.88 87.1535 606.936 88.9774 600.194 88.9448C593.484 88.9448 587.964 87.4466 583.632 84.4502ZM601.513 65.8366C599.233 65.8366 597.425 66.3903 596.09 67.4977C594.787 68.605 594.136 70.0381 594.136 71.7968C594.136 73.5556 594.82 75.005 596.188 76.1449C597.556 77.2848 599.494 77.8548 602.001 77.8548C607.017 77.8548 611.854 76.3892 616.511 73.4579V65.8366H601.513Z" fill="black"/>
<path d="M666.982 77.3663L673.675 76.78H675.483C676.362 76.78 677.078 77.0569 677.632 77.6105C678.218 78.1642 678.511 78.8808 678.511 79.7601V84.9876C678.511 85.7041 678.218 86.3555 677.632 86.9418C677.078 87.4954 676.362 87.8374 675.483 87.9677C672.16 88.6191 667.829 88.9448 662.487 88.9448C648.482 88.9448 641.48 81.6166 641.48 66.9603V20.9393C641.48 20.0599 641.757 19.3434 642.31 18.7897C642.897 18.2034 643.613 17.9103 644.46 17.9103H655.403C656.25 17.9103 656.95 18.2034 657.504 18.7897C658.09 19.3434 658.383 20.0599 658.383 20.9393V37.2567H672.014C672.861 37.2567 673.561 37.5335 674.115 38.0872C674.701 38.6409 674.994 39.3574 674.994 40.2368V46.0505C674.994 46.9299 674.701 47.6464 674.115 48.2001C673.561 48.7538 672.861 49.0306 672.014 49.0306H658.383V66.9603C658.383 70.2824 659.165 72.8554 660.728 74.6793C662.292 76.4706 664.376 77.3663 666.982 77.3663Z" fill="black"/>
<path d="M707.926 88.9448C698.806 88.9448 691.706 86.5998 686.625 81.9097C681.544 77.2197 679.004 70.3312 679.004 61.2443C679.004 52.1248 681.528 45.22 686.576 40.5299C691.625 35.8073 698.644 33.446 707.633 33.446C716.655 33.446 723.576 34.8791 728.396 37.7452C733.249 40.6114 735.675 44.8454 735.675 50.4474C735.675 51.3268 735.382 52.0433 734.796 52.597C734.242 53.1507 733.526 53.4275 732.646 53.4275H725.367C723.152 53.4275 721.279 52.2387 719.749 49.8612C717.827 46.7996 714.424 45.2688 709.538 45.2688C704.685 45.2688 701.282 46.5228 699.327 49.0306C697.406 51.5059 696.445 55.5609 696.445 61.1954C696.445 66.83 697.438 70.9012 699.425 73.409C701.444 75.9169 704.929 77.1708 709.88 77.1708C714.863 77.1708 718.316 75.6401 720.237 72.5785C721.768 70.1684 723.641 68.9633 725.855 68.9633H733.135C734.014 68.9633 734.731 69.2564 735.284 69.8427C735.871 70.3964 736.164 71.0966 736.164 71.9434C736.164 77.5454 733.737 81.7795 728.884 84.6456C724.064 87.5117 717.078 88.9448 707.926 88.9448Z" fill="black"/>
<path d="M740.174 84.9876V20.9393C740.174 20.0599 740.451 19.3434 741.004 18.7897C741.591 18.2034 742.307 17.9103 743.154 17.9103H754.097C754.944 17.9103 755.644 18.2034 756.198 18.7897C756.784 19.3434 757.077 20.0599 757.077 20.9393V40.5299C762.679 35.8073 768.64 33.446 774.958 33.446C781.309 33.446 786.472 35.3839 790.445 39.2597C794.419 43.1029 796.405 48.9981 796.405 56.9451V84.9876C796.405 85.8344 796.112 86.5509 795.526 87.1372C794.972 87.6909 794.256 87.9677 793.376 87.9677H782.482C781.635 87.9677 780.918 87.6909 780.332 87.1372C779.779 86.5509 779.502 85.8344 779.502 84.9876V56.9451C779.502 49.1609 776.391 45.2688 770.17 45.2688C766.099 45.2688 761.735 47.5976 757.077 52.255V84.9876C757.077 85.8344 756.784 86.5509 756.198 87.1372C755.644 87.6909 754.944 87.9677 754.097 87.9677H743.154C742.307 87.9677 741.591 87.6909 741.004 87.1372C740.451 86.5509 740.174 85.8344 740.174 84.9876Z" fill="black"/>
</svg>
