<svg width="95" height="38" viewBox="0 0 95 38" fill="none" xmlns="http://www.w3.org/2000/svg">
<path d="M48.3317 29.2913C46.3938 29.2913 44.6423 28.8434 43.0771 27.9476C41.5367 27.027 40.3069 25.7829 39.3876 24.2154C38.4932 22.6479 38.046 20.8813 38.046 18.9156C38.046 16.9499 38.456 15.1958 39.2758 13.6531C40.1206 12.0856 41.2634 10.8539 42.7044 9.9582C44.1454 9.03758 45.7727 8.57727 47.5864 8.57727C49.0522 8.57727 50.4063 8.88829 51.6485 9.51033C52.8907 10.1075 53.9342 10.9286 54.7789 11.9736V2.27161C54.7789 1.69933 54.9528 1.23902 55.3007 0.890679C55.6733 0.542336 56.133 0.368164 56.6795 0.368164C57.251 0.368164 57.7106 0.542336 58.0584 0.890679C58.4062 1.23902 58.5802 1.69933 58.5802 2.27161V18.9156C58.5802 20.8813 58.1205 22.6479 57.2013 24.2154C56.3069 25.7829 55.0895 27.027 53.5491 27.9476C52.0087 28.8434 50.2696 29.2913 48.3317 29.2913ZM48.3317 25.9322C49.5988 25.9322 50.7292 25.6336 51.723 25.0365C52.7168 24.4144 53.4994 23.5685 54.0708 22.4986C54.6423 21.4286 54.928 20.2343 54.928 18.9156C54.928 17.572 54.6423 16.3777 54.0708 15.3326C53.4994 14.2876 52.7168 13.4665 51.723 12.8694C50.7292 12.2473 49.5988 11.9363 48.3317 11.9363C47.0895 11.9363 45.9591 12.2473 44.9404 12.8694C43.9466 13.4665 43.1516 14.2876 42.5553 15.3326C41.9839 16.3777 41.6982 17.572 41.6982 18.9156C41.6982 20.2343 41.9839 21.4286 42.5553 22.4986C43.1516 23.5685 43.9466 24.4144 44.9404 25.0365C45.9591 25.6336 47.0895 25.9322 48.3317 25.9322Z" fill="#222222"/>
<path d="M63.2477 20.778C62.698 20.778 62.2356 20.6044 61.8608 20.2573C61.5109 19.9102 61.336 19.4639 61.336 18.9184C61.336 18.3482 61.5109 17.8895 61.8608 17.5424C62.2356 17.1953 62.698 17.0217 63.2477 17.0217H70.3549C70.9046 17.0217 71.3545 17.1953 71.7043 17.5424C72.0542 17.8895 72.2291 18.3482 72.2291 18.9184C72.2291 19.4639 72.0542 19.9102 71.7043 20.2573C71.3545 20.6044 70.9046 20.778 70.3549 20.778H63.2477Z" fill="#222222"/>
<path d="M85.6409 29.2901C83.5718 29.2901 81.727 28.8531 80.1067 27.9793C78.5112 27.0805 77.2523 25.8572 76.3299 24.3092C75.4325 22.7364 74.9837 20.9388 74.9837 18.9165C74.9837 16.8692 75.4075 15.0717 76.2551 13.5237C77.1276 11.9509 78.3242 10.7275 79.8449 9.85368C81.3656 8.95489 83.1106 8.50549 85.08 8.50549C87.0245 8.50549 88.6947 8.94241 90.0907 9.81623C91.4868 10.6651 92.5463 11.851 93.2692 13.3739C94.0171 14.8719 94.391 16.7326 94.391 18.7049C94.391 19.1793 94.229 19.5787 93.9049 19.9033C93.5808 20.2029 93.1695 20.3527 92.6709 20.3527H78.4613C78.7356 22.0754 79.5208 23.3605 80.8171 24.459C82.1384 25.5326 83.7463 26.0694 85.6409 26.0694C86.4137 26.0694 87.199 25.9321 87.9967 25.6574C88.8194 25.3578 89.48 25.0208 89.9786 24.6463C90.3525 24.3717 90.7514 24.2343 91.1752 24.2343C91.6239 24.2094 92.0103 24.3342 92.3344 24.6088C92.7582 24.9833 92.9825 25.3953 93.0074 25.8447C93.0324 26.2941 92.8329 26.6811 92.4091 27.0056C91.5616 27.6797 90.5021 28.229 89.2307 28.6534C87.9842 29.0778 86.7876 29.2901 85.6409 29.2901ZM85.08 11.7262C83.2352 11.7262 81.752 12.238 80.6302 13.2616C79.5084 14.2852 78.7979 15.7339 78.4987 17.3567H90.9508C90.7264 15.7589 90.1157 14.3227 89.1185 13.299C88.1213 12.2505 86.7752 11.7262 85.08 11.7262Z" fill="#222222"/>
<path d="M9.41094 5.30198C8.7393 5.30198 8.15471 5.06526 7.6572 4.59181C7.18456 4.09345 6.98132 3.48252 6.98132 2.80972C6.98132 2.13693 7.18456 1.58916 7.6572 1.11571C8.15471 0.617347 8.7393 0.368164 9.41094 0.368164C10.0826 0.368164 10.6547 0.617347 11.1274 1.11571C11.6249 1.58916 11.8736 2.16228 11.8736 2.83507C11.8736 3.50787 11.6249 4.09345 11.1274 4.59181C10.6547 5.06526 10.0826 5.30198 9.41094 5.30198Z" fill="#222222"/>
<path d="M2.47457 37.6954C1.9273 37.6954 1.47954 37.5085 1.13128 37.1348C0.783017 36.7859 0.608887 36.3374 0.608887 35.7892C0.608887 35.2161 0.783017 34.7551 1.13128 34.4062C1.47954 34.0574 1.9273 33.8829 2.47457 33.8829C3.94224 33.8829 5.14872 33.4095 6.094 32.4626C7.03928 31.5157 7.51192 30.3196 7.51192 28.8744L7.51192 10.4099C7.51192 9.83679 7.68605 9.3758 8.03431 9.02695C8.40745 8.67809 8.86765 8.50366 9.41492 8.50366C9.98706 8.50366 10.4473 8.67809 10.7955 9.02695C11.1438 9.3758 11.3179 9.83679 11.3179 10.4099L11.3179 28.8744C11.3179 30.5937 10.9323 32.1137 10.1612 33.4344C9.41492 34.7551 8.38257 35.7892 7.06416 36.5367C5.74574 37.3092 4.21588 37.6954 2.47457 37.6954Z" fill="#222222"/>
<path d="M34.9175 16.2021C34.8817 16.0691 34.8408 15.9361 34.7973 15.8031C33.5518 11.9131 30.0582 9.02569 25.846 8.6702C25.5544 8.64462 25.2578 8.63184 24.9611 8.63184C24.6644 8.63184 24.3703 8.64462 24.0788 8.6702C20.9125 8.93618 18.153 10.6344 16.4471 13.1126C15.8819 13.931 15.4343 14.8364 15.1249 15.8031C14.8026 16.798 14.6313 17.8594 14.6313 18.9617C14.6313 20.3325 14.8973 21.6419 15.3832 22.8363C16.8103 26.3631 20.13 28.9206 24.0788 29.2531C24.3703 29.2787 24.6644 29.2915 24.9611 29.2915C25.2578 29.2915 25.5544 29.2787 25.846 29.2531C29.7974 28.9181 33.1119 26.3631 34.539 22.8363C35.0249 21.6419 35.2909 20.3325 35.2909 18.9617C35.2909 18.0051 35.1605 17.0819 34.9175 16.2021ZM24.9611 25.959C22.8614 25.959 21.1606 24.2583 21.1606 22.1585C21.1606 20.0588 22.8614 18.3581 24.9611 18.3581C27.0608 18.3581 28.7616 20.0588 28.7616 22.1585C28.7616 24.2583 27.0608 25.959 24.9611 25.959ZM24.9611 15.0231C22.1146 15.0256 19.3857 16.2635 17.9637 18.353C17.9637 16.6548 18.6926 15.0589 19.9305 13.8875C21.1683 12.7162 22.9151 11.9694 24.956 11.9668H24.9585C24.9611 11.9668 24.9611 11.9668 24.9611 11.9668C24.9611 11.9668 24.9611 11.9668 24.9637 11.9668H24.9662C29.048 11.9694 31.9585 14.9566 31.9585 18.353C30.5365 16.2635 27.8076 15.0256 24.9611 15.0231Z" fill="#FFD600"/>
</svg>
